<?xml version="1.0" encoding="utf-8"?>
<!-- Generator: Adobe Illustrator 15.0.0, SVG Export Plug-In . SVG Version: 6.00 Build 0)  -->
<!DOCTYPE svg PUBLIC "-//W3C//DTD SVG 1.1//EN" "http://www.w3.org/Graphics/SVG/1.1/DTD/svg11.dtd">
<svg version="1.1" id="Layer_1" xmlns="http://www.w3.org/2000/svg" xmlns:xlink="http://www.w3.org/1999/xlink" x="0px" y="0px"
	 width="30px" height="30px" viewBox="0 0 30 30" enable-background="new 0 0 30 30" xml:space="preserve">
<path fill="#E65F78" d="M8.5,26h13c0.3,0,0.5-0.2,0.5-0.5S21.8,25,21.5,25h-13C8.2,25,8,25.2,8,25.5S8.2,26,8.5,26z M13.5,28h3
	c0.3,0,0.5-0.2,0.5-0.5S16.8,27,16.5,27h-3c-0.3,0-0.5,0.2-0.5,0.5S13.2,28,13.5,28z M8.5,4h13C21.8,4,22,4.2,22,4.5S21.8,5,21.5,5
	h-13C8.2,5,8,4.8,8,4.5S8.2,4,8.5,4z M13.5,2h3C16.8,2,17,2.2,17,2.5S16.8,3,16.5,3h-3C13.2,3,13,2.8,13,2.5S13.2,2,13.5,2z M7.5,0
	C6.7,0,6,0.7,6,1.5v27C6,29.3,6.7,30,7.5,30h15c0.8,0,1.5-0.7,1.5-1.5v-27C24,0.7,23.3,0,22.5,0H7.5z M7.5,1h15
	C22.8,1,23,1.2,23,1.5v27c0,0.3-0.2,0.5-0.5,0.5h-15C7.2,29,7,28.8,7,28.5v-27C7,1.2,7.2,1,7.5,1z"/>
</svg>
