<?xml version="1.0" encoding="utf-8"?>
<!-- Generator: Adobe Illustrator 15.0.0, SVG Export Plug-In . SVG Version: 6.00 Build 0)  -->
<!DOCTYPE svg PUBLIC "-//W3C//DTD SVG 1.1//EN" "http://www.w3.org/Graphics/SVG/1.1/DTD/svg11.dtd">
<svg version="1.1" id="Layer_1" xmlns="http://www.w3.org/2000/svg" xmlns:xlink="http://www.w3.org/1999/xlink" x="0px" y="0px"
	 width="30px" height="30px" viewBox="0 0 30 30" enable-background="new 0 0 30 30" xml:space="preserve">
<path fill="#E65F78" d="M2.5,7C2,7,1.815,7.656,2.23,7.922l11.833,7.78c0.6,0.396,1.37,0.399,1.97,0l11.727-7.77
	c0.578-0.353-0.01-1.22-0.55-0.834l-11.728,7.77c-0.327,0.218-0.54,0.216-0.87,0L2.783,7.085C2.698,7.03,2.602,7,2.5,7z M1.5,5
	C0.678,5,0,5.678,0,6.5v17C0,24.322,0.678,25,1.5,25h27c0.822,0,1.5-0.678,1.5-1.5v-17C30,5.678,29.322,5,28.5,5H1.5z M1.5,6h27
	C28.786,6,29,6.214,29,6.5v17c0,0.286-0.214,0.5-0.5,0.5h-27C1.214,24,1,23.786,1,23.5v-17C1,6.214,1.214,6,1.5,6z"/>
</svg>
