<?xml version="1.0" encoding="utf-8"?>
<!-- Generator: Adobe Illustrator 15.0.0, SVG Export Plug-In . SVG Version: 6.00 Build 0)  -->
<!DOCTYPE svg PUBLIC "-//W3C//DTD SVG 1.1//EN" "http://www.w3.org/Graphics/SVG/1.1/DTD/svg11.dtd">
<svg version="1.1" id="Layer_1" xmlns="http://www.w3.org/2000/svg" xmlns:xlink="http://www.w3.org/1999/xlink" x="0px" y="0px"
	 width="30px" height="30px" viewBox="0 0 30 30" enable-background="new 0 0 30 30" xml:space="preserve">
<path fill="#E65F78" d="M15,7c-2.756,0-5,2.244-5,5s2.244,5,5,5s5-2.244,5-5S17.756,7,15,7z M15,8c2.215,0,4,1.785,4,4s-1.785,4-4,4
	s-4-1.785-4-4S12.785,8,15,8z M15,0C8.38,0,3,5.38,3,12c0,3.95,2.326,8.374,4.934,11.859c1.303,1.746,2.682,3.25,3.908,4.336
	c0.613,0.541,1.187,0.978,1.707,1.289c0.52,0.311,0.974,0.516,1.45,0.516s0.931-0.204,1.45-0.516
	c0.52-0.311,1.095-0.748,1.708-1.291c1.226-1.082,2.604-2.59,3.907-4.332C24.674,20.375,27,15.95,27,12C27,5.38,21.62,0,15,0z M15,1
	c6.08,0,11,4.92,11,11c0,3.55-2.202,7.876-4.734,11.264c-1.267,1.693-2.609,3.156-3.77,4.18c-0.58,0.515-1.116,0.918-1.559,1.184
	S15.134,29,15,29s-0.495-0.107-0.938-0.373c-0.442-0.266-0.978-0.67-1.558-1.182c-1.16-1.025-2.503-2.488-3.77-4.18
	C6.202,19.874,4,15.548,4,12C4,5.92,8.92,1,15,1z"/>
</svg>
