<?xml version="1.0" encoding="utf-8"?>
<!-- Generator: Adobe Illustrator 15.0.0, SVG Export Plug-In . SVG Version: 6.00 Build 0)  -->
<!DOCTYPE svg PUBLIC "-//W3C//DTD SVG 1.1//EN" "http://www.w3.org/Graphics/SVG/1.1/DTD/svg11.dtd">
<svg version="1.1" id="Layer_1" xmlns="http://www.w3.org/2000/svg" xmlns:xlink="http://www.w3.org/1999/xlink" x="0px" y="0px"
	 width="30px" height="30px" viewBox="0 0 30 30" enable-background="new 0 0 30 30" xml:space="preserve">
<path fill="#E65F78" d="M7.518,25c1.428,0,2.832-0.616,3.863-1.623C12.415,22.37,13,21.012,13,19.502
	c0-1.391-0.616-2.673-1.332-3.766c-0.714-1.09-1.558-2.03-2.26-3.023c-0.406-0.573-0.766-1.164-1.02-1.785
	C8.132,10.308,7.983,9.641,8,9.002c0.032-1.223,0.728-2.428,1.766-3.076c0.447-0.278,0.187-1.02-0.358-0.916
	c-2.647,0.5-5.093,1.95-6.8,4.035C0.904,11.13,0,13.805,0,16.5c0,2,0.64,4.188,1.965,5.828c0.663,0.82,1.494,1.513,2.45,1.986
	C5.369,24.789,6.441,25,7.518,25z M7.482,24c-0.9,0-1.81-0.178-2.623-0.582c-0.815-0.404-1.54-1-2.118-1.717
	C1.586,20.27,1,18.475,1,16.5c0-2.452,0.83-4.922,2.383-6.82c1.114-1.362,2.64-2.287,4.273-2.95C7.258,7.412,7.02,8.2,7,9
	c-0.02,0.81,0.167,1.586,0.463,2.307c0.296,0.718,0.697,1.372,1.13,1.98c0.744,1.054,1.578,1.99,2.237,2.995
	c0.657,1.003,1.17,2.102,1.17,3.217c0,1.158-0.48,2.344-1.316,3.16c-0.84,0.819-2.017,1.338-3.202,1.338V24z M24.518,25
	c1.428,0,2.832-0.616,3.863-1.623C29.415,22.37,30,21.01,30,19.5c0-1.391-0.616-2.67-1.332-3.764c-0.714-1.09-1.559-2.03-2.26-3.023
	c-0.406-0.573-0.766-1.164-1.02-1.785c-0.257-0.62-0.406-1.287-0.389-1.926c0.032-1.223,0.729-2.428,1.766-3.076
	c0.447-0.278,0.188-1.02-0.357-0.916c-2.646,0.5-5.094,1.95-6.801,4.035C17.904,11.13,17,13.808,17,16.502
	c0,2,0.641,4.186,1.965,5.826c0.663,0.82,1.494,1.513,2.45,1.986C22.369,24.789,23.441,25,24.518,25z M24.482,24
	c-0.9,0-1.811-0.178-2.623-0.582c-0.815-0.404-1.541-1-2.118-1.717C18.586,20.27,18,18.477,18,16.503
	c0-2.452,0.83-4.924,2.383-6.822c1.114-1.362,2.641-2.287,4.273-2.95C24.258,7.412,24.02,8.2,24,9
	c-0.02,0.81,0.167,1.586,0.463,2.307c0.296,0.718,0.697,1.372,1.13,1.98c0.744,1.054,1.578,1.99,2.237,2.995
	c0.656,1.003,1.17,2.1,1.17,3.215c0,1.158-0.48,2.346-1.316,3.162c-0.84,0.819-2.017,1.338-3.201,1.338V24z"/>
</svg>
